<svg id="Layer_1" data-name="Layer 1" xmlns="http://www.w3.org/2000/svg" viewBox="0 0 100.32 101"><defs><style>.cls-1{fill:#deeaee;stroke:#fff;stroke-width:3px;}.cls-2{fill:#4a556b;}</style></defs><title>coin-icon</title><path class="cls-1" d="M99.65,51A48.66,48.66,0,1,0,51,100,48.83,48.83,0,0,0,99.65,51Z" transform="translate(-0.84 -0.5)"/><path class="cls-2" d="M63.22,47.15c-1.06,0-2.13,0-3.19.1V34.46c0-3.85-8.23-5.61-15.87-5.61S28.29,30.6,28.29,34.46V65c0,3.85,8.23,5.61,15.87,5.61,1.08,0,2.14,0,3.19-.12v.61c0,3.85,8.23,5.61,15.87,5.61a47.68,47.68,0,0,0,5.32-.29c3.17-.36,10.55-1.6,10.55-5.32V52.76C79.09,48.9,70.86,47.15,63.22,47.15ZM34.14,32.51a36.44,36.44,0,0,1,10-1.24,36.44,36.44,0,0,1,10,1.24c2.85.86,3.43,1.76,3.43,2s-.58,1.1-3.43,2a36.44,36.44,0,0,1-10,1.24,36.44,36.44,0,0,1-10-1.24c-2.85-.86-3.43-1.76-3.43-2S31.29,33.36,34.14,32.51Zm-3.43,5.12c3,1.66,8.36,2.44,13.45,2.44s10.45-.78,13.45-2.44v2.93c0,.19-.58,1.1-3.43,2a36.43,36.43,0,0,1-10,1.24,36.43,36.43,0,0,1-10-1.24c-2.85-.86-3.43-1.76-3.43-2Zm0,6.1c3,1.66,8.36,2.44,13.45,2.44s10.45-.78,13.45-2.44v2.93c0,.12-.21.49-1,.95A21.76,21.76,0,0,0,50,49.47a43.85,43.85,0,0,1-5.83.38,36.43,36.43,0,0,1-10-1.24c-2.85-.85-3.43-1.76-3.43-2Zm0,6.1c3,1.66,8.36,2.44,13.45,2.44,1.09,0,2.18,0,3.27-.12a2.61,2.61,0,0,0-.08.61v3.07c-1,.07-2.1.12-3.19.12a36.44,36.44,0,0,1-10-1.24c-2.85-.86-3.43-1.76-3.43-2Zm0,6.1c3,1.66,8.36,2.44,13.45,2.44,1.06,0,2.13,0,3.19-.12v3.67c-1,.07-2.1.12-3.19.12a36.44,36.44,0,0,1-10-1.24c-2.85-.86-3.43-1.76-3.43-2ZM44.16,68.14a36.44,36.44,0,0,1-10-1.24c-2.85-.86-3.43-1.76-3.43-2V62c3,1.66,8.36,2.44,13.45,2.44,1.06,0,2.13,0,3.19-.12V68C46.31,68.09,45.25,68.14,44.16,68.14Zm32.51,2.91c0,.5-2.07,2.2-8.4,2.91a44.85,44.85,0,0,1-5,.27A36.43,36.43,0,0,1,53.2,73c-2.85-.86-3.43-1.76-3.43-2V68.12c3,1.66,8.36,2.44,13.45,2.44s10.45-.78,13.45-2.44Zm0-6.1c0,.19-.58,1.1-3.43,2a36.43,36.43,0,0,1-10,1.24,36.43,36.43,0,0,1-10-1.24c-2.85-.86-3.43-1.76-3.43-2V62c3,1.66,8.36,2.44,13.45,2.44S73.67,63.68,76.67,62Zm0-6.1c0,.19-.58,1.1-3.43,2a36.43,36.43,0,0,1-10,1.24,36.43,36.43,0,0,1-10-1.24c-2.85-.86-3.43-1.76-3.43-2V55.92c3,1.66,8.36,2.44,13.45,2.44s10.45-.78,13.45-2.44Zm-3.43-4.15a36.43,36.43,0,0,1-10,1.24,36.43,36.43,0,0,1-10-1.24c-2.85-.86-3.43-1.76-3.43-2s.58-1.1,3.43-2a36.43,36.43,0,0,1,10-1.24,36.43,36.43,0,0,1,10,1.24c2.85.86,3.43,1.76,3.43,2S76.09,53.85,73.24,54.71Z" transform="translate(-0.84 -0.5)"/></svg>