<?xml version="1.0" encoding="utf-8"?>
<!-- Generator: Adobe Illustrator 21.1.0, SVG Export Plug-In . SVG Version: 6.00 Build 0)  -->
<svg version="1.1" id="Layer_1" xmlns="http://www.w3.org/2000/svg" xmlns:xlink="http://www.w3.org/1999/xlink" x="0px" y="0px"
	 viewBox="0 0 100.3 101" style="enable-background:new 0 0 100.3 101;" xml:space="preserve">
<style type="text/css">
	.st0{fill:#DEEAEE;stroke:#FFFFFF;stroke-width:3;}
	.st1{fill:#4A556B;}
</style>
<title>voucher-icon</title>
<path class="st0" d="M98.8,50.5C98.6,23.6,76.7,2,49.8,2.2C22.9,2.4,1.3,24.3,1.5,51.2c0.2,26.7,21.9,48.3,48.7,48.3
	C77.1,99.4,98.9,77.5,98.8,50.5z"/>
<path class="st1" d="M79,51.1l-25-25c-1-1-2.4-1.6-3.9-1.6H30.7c-3,0-5.5,2.5-5.5,5.6v19.4c0,1.5,0.6,2.9,1.6,3.9l25,25
	c1,1,2.4,1.6,3.9,1.6c1.5,0,2.9-0.6,3.9-1.6L79,58.9c1.1-1,1.6-2.4,1.6-3.9C80.6,53.6,80,52.1,79,51.1z M34.8,38.4
	c-2.3,0-4.2-1.9-4.2-4.2s1.9-4.2,4.2-4.2s4.2,1.9,4.2,4.2l0,0C39,36.5,37.1,38.4,34.8,38.4z"/>
</svg>
