<svg id="Layer_1" data-name="Layer 1" xmlns="http://www.w3.org/2000/svg" viewBox="0 0 100.32 101"><defs><style>.cls-1{fill:#deeaee;stroke:#fff;stroke-width:3px;}.cls-2{fill:$app-header-color;}</style></defs><title>voucher-icon</title><path class="cls-1" d="M99.65,51A48.66,48.66,0,1,0,51,100,48.83,48.83,0,0,0,99.65,51Z" transform="translate(-0.84 -0.5)"/><path class="cls-2" d="M79.81,51.59l-25-25A5.52,5.52,0,0,0,50.93,25H31.5A5.56,5.56,0,0,0,26,30.56V50a5.55,5.55,0,0,0,1.64,3.94l25,25a5.5,5.5,0,0,0,3.91,1.61,5.4,5.4,0,0,0,3.91-1.64L79.81,59.44a5.43,5.43,0,0,0,1.64-3.91A5.61,5.61,0,0,0,79.81,51.59ZM35.67,38.88a4.16,4.16,0,1,1,4.16-4.16A4.16,4.16,0,0,1,35.67,38.88Z" transform="translate(-0.84 -0.5)"/></svg>